<?xml version="1.0" standalone="no"?>
<!DOCTYPE svg PUBLIC "-//W3C//DTD SVG 20010904//EN"
 "http://www.w3.org/TR/2001/REC-SVG-20010904/DTD/svg10.dtd">
<svg version="1.0" xmlns="http://www.w3.org/2000/svg"
 width="366.000000pt" height="357.000000pt" viewBox="0 0 366.000000 357.000000"
 preserveAspectRatio="xMidYMid meet">
<metadata>
Created by potrace 1.16, written by Peter Selinger 2001-2019
</metadata>
<g transform="translate(0.000000,357.000000) scale(0.100000,-0.100000)"
fill="#000000" stroke="none">
<path d="M1645 3255 c-173 -22 -316 -63 -470 -135 -482 -225 -812 -674 -896
-1217 l-13 -83 -48 0 -48 0 0 -67 c0 -165 50 -408 117 -578 94 -236 190 -382
373 -565 261 -262 550 -412 919 -476 121 -21 416 -24 516 -6 266 50 444 117
647 243 467 288 765 808 780 1359 l3 95 -51 -2 -51 -2 -12 82 c-27 177 -64
299 -132 446 -295 629 -950 992 -1634 906z m500 -115 c337 -74 635 -258 851
-525 151 -187 265 -442 304 -680 21 -129 24 -116 -33 -113 l-51 3 -17 100
c-78 470 -408 873 -855 1045 -43 16 -126 42 -184 57 -96 25 -122 27 -300 27
-209 1 -283 -9 -440 -61 -150 -50 -345 -156 -435 -237 -16 -15 -49 -43 -73
-63 -95 -79 -241 -283 -307 -428 -60 -132 -115 -328 -115 -411 l0 -34 -61 0
-61 0 7 57 c35 285 152 546 349 781 208 247 525 428 861 491 102 19 115 19
290 16 128 -2 194 -9 270 -25z m-75 -139 c19 -5 62 -14 95 -22 33 -7 101 -28
150 -46 453 -170 777 -578 850 -1070 l7 -43 -1322 0 -1322 0 6 28 c3 15 8 47
11 72 35 242 176 512 369 706 219 218 496 352 806 388 55 7 311 -3 350 -13z
m-1158 -1501 c28 -35 25 -140 -5 -176 -20 -23 -32 -28 -76 -28 -46 -1 -56 3
-77 27 -42 49 -30 170 20 196 35 18 117 7 138 -19z m1108 17 c18 -9 24 -20 22
-37 -3 -33 -7 -34 -34 -16 -28 20 -62 21 -78 1 -14 -17 -9 -19 51 -29 113 -19
100 -146 -15 -146 -57 0 -81 19 -72 55 7 26 8 26 26 10 24 -21 84 -17 88 7 2
13 -7 18 -43 23 -51 8 -80 28 -90 63 -5 17 1 30 24 52 33 33 77 39 121 17z
m245 1 c25 -11 30 -24 19 -52 -5 -14 -8 -14 -27 -1 -79 55 -161 -52 -84 -109
24 -18 31 -19 60 -8 49 19 52 19 52 -8 0 -57 -98 -63 -158 -10 -28 25 -32 35
-32 78 0 40 5 56 25 77 41 44 94 57 145 33z m685 -1 c18 -9 24 -20 22 -37 -3
-33 -9 -36 -31 -16 -24 22 -75 18 -79 -6 -3 -13 3 -18 21 -18 38 0 86 -20 97
-40 33 -61 -14 -115 -93 -107 -58 5 -72 17 -63 52 6 25 8 26 25 11 23 -21 80
-21 88 -1 8 21 4 24 -51 34 -52 9 -70 23 -81 59 -5 17 1 29 24 52 33 33 77 39
121 17z m234 2 c13 -7 30 -25 37 -40 16 -39 7 -134 -15 -158 -36 -39 -130 -35
-162 7 -16 21 -18 135 -3 163 19 36 93 50 143 28z m-2520 -14 c22 -22 29 -52
17 -74 -8 -14 -8 -27 1 -45 15 -34 -2 -73 -38 -86 -14 -6 -52 -10 -85 -10
l-59 0 0 115 0 115 74 0 c53 0 79 -4 90 -15z m385 -40 c13 -30 26 -55 30 -55
4 0 19 25 34 55 22 45 31 55 52 55 l26 0 -3 -112 c-3 -108 -4 -113 -25 -116
-20 -3 -22 2 -25 50 l-3 53 -18 -32 c-21 -40 -53 -43 -69 -8 -17 38 -28 30
-28 -20 0 -38 -3 -45 -20 -45 -19 0 -20 7 -20 115 0 114 0 115 23 115 19 0 28
-11 46 -55z m532 26 c24 -25 29 -37 29 -81 0 -28 -5 -60 -11 -72 -16 -29 -70
-48 -139 -48 l-60 0 0 115 0 115 76 0 c70 0 78 -2 105 -29z m257 7 c-3 -21 -9
-23 -70 -26 -65 -3 -68 -4 -68 -27 0 -24 3 -25 55 -25 52 0 55 -1 55 -25 0
-24 -3 -25 -55 -25 -42 0 -55 -3 -55 -15 0 -12 15 -15 71 -15 67 0 70 -1 67
-22 -3 -22 -8 -23 -95 -26 l-93 -3 0 116 0 115 96 0 c93 0 95 -1 92 -22z m670
-90 c39 -110 39 -113 19 -116 -11 -2 -26 3 -33 12 -15 22 -112 23 -120 1 -6
-15 -54 -22 -54 -7 0 4 16 50 35 102 20 52 37 101 40 108 2 6 20 12 39 12 l34
0 40 -112z m158 57 c20 -30 41 -55 45 -55 5 0 9 25 9 55 0 52 1 55 25 55 25 0
25 0 25 -99 0 -55 -3 -106 -6 -115 -13 -34 -42 -16 -86 52 l-43 67 -3 -67 c-3
-65 -4 -68 -27 -68 l-25 0 0 115 0 115 25 0 c19 0 33 -13 61 -55z m513 -467
c-32 -64 -143 -227 -191 -281 l-43 -48 -1095 0 -1095 0 -37 41 c-48 54 -156
212 -190 277 l-27 53 1350 0 1349 0 -21 -42z m-1306 -493 c15 -31 21 -35 57
-35 22 0 40 -3 40 -6 0 -3 -14 -17 -30 -31 -28 -24 -30 -29 -24 -70 l6 -44
-38 20 -38 20 -34 -21 -35 -22 6 45 c5 40 3 47 -26 77 l-31 32 42 0 c38 0 44
3 59 35 9 19 20 35 23 35 3 0 14 -16 23 -35z"/>
<path d="M1859 2689 c-11 -11 -26 -19 -32 -16 -21 8 -57 -12 -67 -37 -5 -15
-20 -27 -39 -31 -31 -7 -51 -30 -51 -59 0 -8 -14 -28 -31 -45 -30 -30 -33 -59
-9 -85 15 -15 148 -15 161 0 6 8 19 14 28 14 9 0 25 6 36 14 20 13 20 12 13
-131 -3 -79 -9 -160 -12 -179 -6 -32 -9 -34 -45 -34 -59 0 -61 24 -8 79 37 39
43 50 38 76 -8 37 -41 41 -56 8 -5 -13 -14 -23 -19 -23 -5 0 -20 -10 -33 -22
l-23 -22 -16 22 c-19 27 -36 28 -58 3 -10 -11 -34 -27 -53 -36 -19 -9 -32 -19
-29 -22 3 -3 -2 -12 -12 -19 -10 -8 -12 -13 -4 -14 20 0 14 -27 -8 -33 -11 -3
-20 -10 -20 -16 0 -14 696 -16 704 -2 10 16 -24 21 -144 21 l-118 0 -7 73
c-13 122 -20 287 -14 287 4 0 12 -7 19 -15 7 -8 20 -15 29 -15 9 0 22 -5 29
-12 7 -7 40 -13 75 -14 71 -2 107 14 107 49 0 28 -26 67 -46 67 -9 0 -14 10
-14 29 0 32 -13 46 -52 56 -16 4 -29 16 -32 30 -6 23 -38 41 -64 36 -7 -1 -24
7 -39 18 -33 27 -58 26 -84 0z"/>
<path d="M1310 820 c0 -73 2 -80 20 -80 13 0 20 7 20 19 0 17 8 20 53 23 l52
3 0 55 0 55 -72 3 -73 3 0 -81z"/>
<path d="M1474 887 c-3 -8 -4 -43 -2 -78 l3 -64 70 0 70 0 0 75 0 75 -68 3
c-50 2 -69 -1 -73 -11z"/>
<path d="M1630 833 c0 -38 4 -74 9 -81 5 -9 27 -12 72 -10 l64 3 3 78 c3 72 1
77 -18 77 -18 0 -20 -6 -20 -60 l0 -60 -35 0 -35 0 0 60 c0 53 -2 60 -20 60
-18 0 -20 -7 -20 -67z"/>
<path d="M1804 886 c-3 -8 -4 -29 -2 -48 3 -32 5 -33 51 -36 26 -2 47 -8 47
-14 0 -7 -17 -9 -50 -5 -48 6 -50 5 -50 -19 0 -24 1 -25 68 -22 l67 3 0 45 0
45 -52 3 c-30 2 -53 8 -53 14 0 7 19 9 56 5 53 -5 55 -5 52 16 -3 20 -10 22
-66 25 -47 2 -64 -1 -68 -12z"/>
<path d="M1982 877 c-27 -29 -33 -137 -7 -137 8 0 15 9 15 20 0 16 7 20 34 20
25 0 35 -5 39 -20 3 -11 12 -20 21 -20 13 0 16 13 16 80 l0 80 -48 0 c-38 0
-53 -5 -70 -23z"/>
<path d="M2120 820 l0 -80 70 0 70 0 0 58 c0 76 -24 102 -93 102 l-47 0 0 -80z"/>
<path d="M2293 870 c-32 -39 -33 -130 -3 -130 13 0 20 7 20 20 0 16 7 20 35
20 28 0 35 -4 35 -20 0 -13 7 -20 20 -20 18 0 20 7 20 80 l0 80 -52 -1 c-46 0
-56 -4 -75 -29z"/>
</g>
</svg>
